<svg width="300" height="100" viewBox="0 0 300 100" fill="none" xmlns="http://www.w3.org/2000/svg">
<rect width="300" height="100" fill="#E5E5E5"/>
<rect width="300" height="100" rx="8" fill="white"/>
<path d="M254.188 78.9688C254.188 80.5729 254.729 81.9167 255.812 83C256.896 84.0833 258.365 84.625 260.219 84.625C262.052 84.625 263.51 84.0938 264.594 83.0312C265.698 81.9479 266.25 80.5938 266.25 78.9688C266.25 77.3438 265.708 75.9792 264.625 74.875C263.562 73.7708 262.094 73.2188 260.219 73.2188C258.323 73.2188 256.844 73.7812 255.781 74.9062C254.719 76.0104 254.188 77.3646 254.188 78.9688Z" fill="#D53F8C"/>
<path d="M23.5 56.8438V57.5C23.5 59.9583 23.8021 62.2396 24.4062 64.3438C25.0104 66.4271 25.8854 68.2292 27.0312 69.75C28.1562 71.2708 29.5312 72.4688 31.1562 73.3438C32.8021 74.1979 34.6562 74.625 36.7188 74.625C38.6146 74.625 40.2812 74.2604 41.7188 73.5312C43.1562 72.8021 44.4062 71.7812 45.4688 70.4688L45.9062 74H53.75V26H45.0312V43.2188C43.9896 42.0521 42.7917 41.1562 41.4375 40.5312C40.1042 39.8854 38.5521 39.5625 36.7812 39.5625C34.6771 39.5625 32.8021 39.9792 31.1562 40.8125C29.5312 41.6458 28.1458 42.8229 27 44.3438C25.8542 45.8646 24.9792 47.6875 24.375 49.8125C23.7917 51.9375 23.5 54.2812 23.5 56.8438ZM32.1875 57.5V56.8438C32.1875 55.4271 32.3125 54.1042 32.5625 52.875C32.8125 51.625 33.2083 50.5312 33.75 49.5938C34.2917 48.6771 34.9896 47.9583 35.8438 47.4375C36.7188 46.8958 37.7708 46.625 39 46.625C40.4792 46.625 41.7083 46.9479 42.6875 47.5938C43.6667 48.2188 44.4479 49.1042 45.0312 50.25V63.9375C44.4479 65.0625 43.6562 65.9479 42.6562 66.5938C41.6771 67.2396 40.4375 67.5625 38.9375 67.5625C37.7083 67.5625 36.6667 67.3021 35.8125 66.7812C34.9583 66.2604 34.2604 65.5417 33.7188 64.625C33.1771 63.7292 32.7812 62.6771 32.5312 61.4688C32.3021 60.2396 32.1875 58.9167 32.1875 57.5ZM83.9688 74H92.7812V73.4688C92.3438 72.6146 92.0104 71.5938 91.7812 70.4062C91.5521 69.2188 91.4375 67.7188 91.4375 65.9062V51.4062C91.4375 49.4479 91.0729 47.7292 90.3438 46.25C89.6146 44.75 88.6042 43.5104 87.3125 42.5312C86.0208 41.5521 84.4896 40.8125 82.7188 40.3125C80.9688 39.8125 79.0729 39.5625 77.0312 39.5625C74.7604 39.5625 72.7396 39.8542 70.9688 40.4375C69.2188 41 67.7396 41.7708 66.5312 42.75C65.3021 43.7292 64.3646 44.8646 63.7188 46.1562C63.0938 47.4479 62.7812 48.8125 62.7812 50.25H71.4688C71.4688 49.6458 71.5521 49.0938 71.7188 48.5938C71.9062 48.0938 72.1875 47.6667 72.5625 47.3125C72.9792 46.9167 73.5208 46.6146 74.1875 46.4062C74.8542 46.1771 75.6458 46.0625 76.5625 46.0625C77.6042 46.0625 78.5104 46.1979 79.2812 46.4688C80.0729 46.7188 80.7292 47.0833 81.25 47.5625C81.75 48.0208 82.125 48.5729 82.375 49.2188C82.625 49.8438 82.75 50.5521 82.75 51.3438V53.3438H77.9062C75.4062 53.3438 73.1875 53.5729 71.25 54.0312C69.3333 54.4688 67.7188 55.1146 66.4062 55.9688C64.9479 56.9062 63.8542 58.1042 63.125 59.5625C62.3958 61 62.0312 62.6562 62.0312 64.5312C62.0312 65.9896 62.3229 67.3438 62.9062 68.5938C63.4896 69.8229 64.3021 70.8854 65.3438 71.7812C66.3854 72.6771 67.625 73.375 69.0625 73.875C70.5208 74.375 72.1146 74.625 73.8438 74.625C74.9062 74.625 75.8958 74.5208 76.8125 74.3125C77.7292 74.125 78.5729 73.8542 79.3438 73.5C80.0938 73.1667 80.7812 72.7708 81.4062 72.3125C82.0312 71.8542 82.5833 71.3646 83.0625 70.8438C83.1667 71.4479 83.2917 72.0208 83.4375 72.5625C83.5833 73.1042 83.7604 73.5833 83.9688 74ZM75.6875 67.9062C74.875 67.9062 74.1562 67.8125 73.5312 67.625C72.9271 67.4167 72.4167 67.1458 72 66.8125C71.5833 66.4583 71.2604 66.0312 71.0312 65.5312C70.8229 65.0104 70.7188 64.4479 70.7188 63.8438C70.7188 63.0729 70.8646 62.3646 71.1562 61.7188C71.4479 61.0521 71.8958 60.4792 72.5 60C73.1042 59.5417 73.8854 59.1875 74.8438 58.9375C75.8021 58.6667 76.9583 58.5312 78.3125 58.5312H82.75V64.3438C82.5 64.7812 82.1562 65.2188 81.7188 65.6562C81.2812 66.0729 80.7604 66.4479 80.1562 66.7812C79.5521 67.1146 78.875 67.3854 78.125 67.5938C77.375 67.8021 76.5625 67.9062 75.6875 67.9062ZM123.094 64.7188C123.094 65.2396 122.958 65.7188 122.688 66.1562C122.438 66.5938 122.052 66.9792 121.531 67.3125C120.99 67.6458 120.292 67.9167 119.438 68.125C118.604 68.3125 117.625 68.4062 116.5 68.4062C115.562 68.4062 114.646 68.3125 113.75 68.125C112.875 67.9375 112.094 67.6354 111.406 67.2188C110.719 66.8229 110.156 66.3021 109.719 65.6562C109.281 64.9896 109.031 64.1979 108.969 63.2812H100.688C100.688 64.6562 101.021 66.0312 101.688 67.4062C102.375 68.7604 103.375 69.9688 104.688 71.0312C106 72.1146 107.625 72.9896 109.562 73.6562C111.521 74.3229 113.771 74.6562 116.312 74.6562C118.625 74.6562 120.719 74.4062 122.594 73.9062C124.469 73.3854 126.073 72.6667 127.406 71.75C128.719 70.8333 129.729 69.75 130.438 68.5C131.167 67.2292 131.531 65.8438 131.531 64.3438C131.531 62.7188 131.167 61.3229 130.438 60.1562C129.729 58.9688 128.74 57.9583 127.469 57.125C126.198 56.3125 124.688 55.6458 122.938 55.125C121.188 54.6042 119.292 54.1771 117.25 53.8438C115.833 53.6354 114.667 53.3958 113.75 53.125C112.833 52.8333 112.115 52.5104 111.594 52.1562C111.052 51.8229 110.677 51.4479 110.469 51.0312C110.26 50.5938 110.156 50.125 110.156 49.625C110.156 49.125 110.271 48.6562 110.5 48.2188C110.75 47.7604 111.104 47.3646 111.562 47.0312C112.062 46.6562 112.708 46.3646 113.5 46.1562C114.292 45.9479 115.219 45.8438 116.281 45.8438C117.531 45.8438 118.594 46 119.469 46.3125C120.365 46.625 121.073 47.0417 121.594 47.5625C121.969 47.9583 122.25 48.4062 122.438 48.9062C122.625 49.3854 122.719 49.9062 122.719 50.4688H131.406C131.406 48.9062 131.062 47.4583 130.375 46.125C129.688 44.7917 128.698 43.6354 127.406 42.6562C126.094 41.6979 124.5 40.9479 122.625 40.4062C120.75 39.8438 118.635 39.5625 116.281 39.5625C114.031 39.5625 112.01 39.8438 110.219 40.4062C108.427 40.9688 106.906 41.7292 105.656 42.6875C104.406 43.6458 103.448 44.7604 102.781 46.0312C102.115 47.3021 101.781 48.6354 101.781 50.0312C101.781 51.4688 102.104 52.7396 102.75 53.8438C103.417 54.9479 104.333 55.9167 105.5 56.75C106.667 57.6042 108.062 58.3333 109.688 58.9375C111.333 59.5208 113.146 60.0104 115.125 60.4062C116.688 60.6979 117.979 60.9896 119 61.2812C120.021 61.5729 120.844 61.8854 121.469 62.2188C122.073 62.5729 122.49 62.9479 122.719 63.3438C122.969 63.7396 123.094 64.1979 123.094 64.7188ZM148.406 44.8438V26H139.719V74H148.406V49.5938C148.74 49.1562 149.104 48.7604 149.5 48.4062C149.917 48.0521 150.375 47.75 150.875 47.5C151.417 47.2083 152.021 46.9896 152.688 46.8438C153.354 46.6979 154.073 46.625 154.844 46.625C155.844 46.625 156.74 46.7604 157.531 47.0312C158.323 47.2812 159 47.6771 159.562 48.2188C160.125 48.7604 160.552 49.4688 160.844 50.3438C161.156 51.2188 161.312 52.2604 161.312 53.4688V74H170V53.5312C170 51.0521 169.698 48.9375 169.094 47.1875C168.51 45.4167 167.688 43.9688 166.625 42.8438C165.562 41.7188 164.292 40.8958 162.812 40.375C161.333 39.8333 159.708 39.5625 157.938 39.5625C156.729 39.5625 155.583 39.7396 154.5 40.0938C153.417 40.4479 152.427 40.9479 151.531 41.5938C150.948 42.0104 150.385 42.5 149.844 43.0625C149.323 43.6042 148.844 44.1979 148.406 44.8438ZM177.281 56.8438V57.5C177.281 59.9583 177.594 62.2396 178.219 64.3438C178.865 66.4271 179.781 68.2292 180.969 69.75C182.156 71.2708 183.583 72.4688 185.25 73.3438C186.938 74.1979 188.833 74.625 190.938 74.625C192 74.625 192.99 74.5104 193.906 74.2812C194.844 74.0521 195.698 73.7292 196.469 73.3125C196.99 73.0208 197.479 72.6875 197.938 72.3125C198.396 71.9375 198.833 71.5208 199.25 71.0625V73C199.25 74.1458 199.083 75.1771 198.75 76.0938C198.438 77.0104 197.979 77.7812 197.375 78.4062C196.708 79.0938 195.875 79.6146 194.875 79.9688C193.896 80.3229 192.771 80.5 191.5 80.5C190.708 80.5 189.938 80.4167 189.188 80.25C188.458 80.1042 187.75 79.875 187.062 79.5625C186.354 79.25 185.677 78.8438 185.031 78.3438C184.385 77.8646 183.781 77.3021 183.219 76.6562L179.312 81.9375C180.042 82.875 180.917 83.6771 181.938 84.3438C182.958 85.0312 184.042 85.5938 185.188 86.0312C186.333 86.4688 187.49 86.7917 188.656 87C189.823 87.2083 190.917 87.3125 191.938 87.3125C194.312 87.3125 196.479 86.9896 198.438 86.3438C200.417 85.7188 202.115 84.7917 203.531 83.5625C204.927 82.3333 206.01 80.8229 206.781 79.0312C207.573 77.2396 207.969 75.1979 207.969 72.9062V40.1875H200.062L199.719 43.4062C199.302 42.8854 198.844 42.4167 198.344 42C197.844 41.5625 197.302 41.1875 196.719 40.875C195.948 40.4375 195.083 40.1146 194.125 39.9062C193.188 39.6771 192.146 39.5625 191 39.5625C188.875 39.5625 186.969 39.9792 185.281 40.8125C183.594 41.6458 182.156 42.8229 180.969 44.3438C179.781 45.8646 178.865 47.6875 178.219 49.8125C177.594 51.9375 177.281 54.2812 177.281 56.8438ZM186 57.5V56.8438C186 55.4271 186.146 54.1042 186.438 52.875C186.729 51.625 187.177 50.5312 187.781 49.5938C188.365 48.6771 189.104 47.9583 190 47.4375C190.896 46.8958 191.958 46.625 193.188 46.625C193.854 46.625 194.469 46.6875 195.031 46.8125C195.615 46.9375 196.146 47.1146 196.625 47.3438C197.188 47.6146 197.688 47.9688 198.125 48.4062C198.562 48.8438 198.938 49.3542 199.25 49.9375V64.25C198.958 64.7708 198.615 65.2396 198.219 65.6562C197.823 66.0729 197.365 66.4271 196.844 66.7188C196.344 66.9896 195.781 67.1979 195.156 67.3438C194.552 67.4896 193.875 67.5625 193.125 67.5625C191.896 67.5625 190.833 67.3021 189.938 66.7812C189.042 66.2604 188.302 65.5417 187.719 64.625C187.135 63.7292 186.698 62.6771 186.406 61.4688C186.135 60.2396 186 58.9167 186 57.5ZM215.406 56.7812V57.4375C215.406 59.9167 215.76 62.2083 216.469 64.3125C217.177 66.3958 218.219 68.2083 219.594 69.75C220.948 71.2917 222.615 72.5 224.594 73.375C226.594 74.2292 228.865 74.6562 231.406 74.6562C233.927 74.6562 236.177 74.2292 238.156 73.375C240.135 72.5 241.802 71.2917 243.156 69.75C244.51 68.2083 245.542 66.3958 246.25 64.3125C246.958 62.2083 247.312 59.9167 247.312 57.4375V56.7812C247.312 54.3229 246.958 52.0521 246.25 49.9688C245.542 47.8646 244.51 46.0417 243.156 44.5C241.781 42.9583 240.104 41.75 238.125 40.875C236.146 40 233.885 39.5625 231.344 39.5625C228.802 39.5625 226.542 40 224.562 40.875C222.604 41.75 220.948 42.9583 219.594 44.5C218.219 46.0417 217.177 47.8646 216.469 49.9688C215.76 52.0521 215.406 54.3229 215.406 56.7812ZM224.094 57.4375V56.7812C224.094 55.4062 224.229 54.1042 224.5 52.875C224.771 51.6458 225.198 50.5625 225.781 49.625C226.365 48.6875 227.115 47.9479 228.031 47.4062C228.948 46.8646 230.052 46.5938 231.344 46.5938C232.656 46.5938 233.771 46.8646 234.688 47.4062C235.604 47.9479 236.354 48.6875 236.938 49.625C237.5 50.5625 237.917 51.6458 238.188 52.875C238.458 54.1042 238.594 55.4062 238.594 56.7812V57.4375C238.594 58.8542 238.458 60.1875 238.188 61.4375C237.917 62.6667 237.5 63.7396 236.938 64.6562C236.354 65.5938 235.604 66.3333 234.688 66.875C233.771 67.4167 232.677 67.6875 231.406 67.6875C230.094 67.6875 228.969 67.4167 228.031 66.875C227.115 66.3333 226.365 65.5938 225.781 64.6562C225.198 63.7396 224.771 62.6667 224.5 61.4375C224.229 60.1875 224.094 58.8542 224.094 57.4375Z" fill="black"/>
</svg>
